<svg xmlns="http://www.w3.org/2000/svg" width="161.55" height="35" viewBox="0 0 161.55 35"><rect class="svg__rect" x="0" y="0" width="61.18" height="35" fill="#005384"/><rect class="svg__rect" x="59.18" y="0" width="102.37" height="35" fill="#8FC965"/><path class="svg__text" d="M15.70 22L14.22 22L14.22 13.47L17.48 13.47Q18.91 13.47 19.75 14.21Q20.59 14.96 20.59 16.18L20.59 16.18Q20.59 17.44 19.77 18.13Q18.95 18.83 17.46 18.83L17.46 18.83L15.70 18.83L15.70 22ZM15.70 14.66L15.70 17.64L17.48 17.64Q18.27 17.64 18.69 17.27Q19.10 16.90 19.10 16.19L19.10 16.19Q19.10 15.50 18.68 15.09Q18.26 14.68 17.52 14.66L17.52 14.66L15.70 14.66ZM26.91 18.86L24.05 13.47L25.70 13.47L27.66 17.51L29.62 13.47L31.26 13.47L28.40 18.86L28.40 22L26.91 22L26.91 18.86ZM36.66 22L35.18 22L35.18 13.47L38.44 13.47Q39.87 13.47 40.71 14.21Q41.55 14.96 41.55 16.18L41.55 16.18Q41.55 17.44 40.73 18.13Q39.90 18.83 38.42 18.83L38.42 18.83L36.66 18.83L36.66 22ZM36.66 14.66L36.66 17.64L38.44 17.64Q39.23 17.64 39.65 17.27Q40.06 16.90 40.06 16.19L40.06 16.19Q40.06 15.50 39.64 15.09Q39.22 14.68 38.48 14.66L38.48 14.66L36.66 14.66ZM47.40 22L45.92 22L45.92 13.47L47.40 13.47L47.40 22Z" fill="#FFFFFF"/><path class="svg__text" d="M75.75 22L73.37 22L73.37 13.60L77.21 13.60Q78.35 13.60 79.19 13.98Q80.03 14.35 80.49 15.06Q80.94 15.76 80.94 16.71L80.94 16.71Q80.94 17.66 80.49 18.35Q80.03 19.05 79.19 19.42Q78.35 19.80 77.21 19.80L77.21 19.80L75.75 19.80L75.75 22ZM75.75 15.47L75.75 17.93L77.07 17.93Q77.80 17.93 78.17 17.61Q78.54 17.29 78.54 16.71L78.54 16.71Q78.54 16.12 78.17 15.80Q77.80 15.47 77.07 15.47L77.07 15.47L75.75 15.47ZM87.11 22L84.69 22L88.40 13.60L90.74 13.60L94.46 22L91.99 22L91.33 20.37L87.78 20.37L87.11 22ZM89.55 15.93L88.47 18.61L90.63 18.61L89.55 15.93ZM98.02 21.24L98.02 21.24L98.80 19.49Q99.37 19.86 100.11 20.09Q100.85 20.32 101.57 20.32L101.57 20.32Q102.94 20.32 102.95 19.64L102.95 19.64Q102.95 19.28 102.56 19.11Q102.17 18.93 101.30 18.74L101.30 18.74Q100.35 18.53 99.71 18.30Q99.08 18.06 98.62 17.55Q98.17 17.03 98.17 16.16L98.17 16.16Q98.17 15.39 98.59 14.77Q99.01 14.15 99.84 13.79Q100.68 13.43 101.89 13.43L101.89 13.43Q102.71 13.43 103.52 13.62Q104.32 13.80 104.94 14.17L104.94 14.17L104.21 15.93Q103.00 15.28 101.87 15.28L101.87 15.28Q101.16 15.28 100.84 15.49Q100.52 15.70 100.52 16.04L100.52 16.04Q100.52 16.37 100.90 16.54Q101.29 16.71 102.14 16.89L102.14 16.89Q103.10 17.10 103.73 17.33Q104.36 17.56 104.82 18.07Q105.28 18.58 105.28 19.46L105.28 19.46Q105.28 20.21 104.86 20.83Q104.45 21.44 103.61 21.80Q102.76 22.17 101.56 22.17L101.56 22.17Q100.54 22.17 99.58 21.92Q98.62 21.67 98.02 21.24ZM109.27 21.24L109.27 21.24L110.05 19.49Q110.62 19.86 111.36 20.09Q112.10 20.32 112.82 20.32L112.82 20.32Q114.19 20.32 114.20 19.64L114.20 19.64Q114.20 19.28 113.81 19.11Q113.42 18.93 112.55 18.74L112.55 18.74Q111.60 18.53 110.96 18.30Q110.33 18.06 109.87 17.55Q109.42 17.03 109.42 16.16L109.42 16.16Q109.42 15.39 109.84 14.77Q110.26 14.15 111.09 13.79Q111.93 13.43 113.14 13.43L113.14 13.43Q113.96 13.43 114.77 13.62Q115.57 13.80 116.19 14.17L116.19 14.17L115.46 15.93Q114.25 15.28 113.12 15.28L113.12 15.28Q112.41 15.28 112.09 15.49Q111.77 15.70 111.77 16.04L111.77 16.04Q111.77 16.37 112.15 16.54Q112.54 16.71 113.39 16.89L113.39 16.89Q114.35 17.10 114.98 17.33Q115.61 17.56 116.07 18.07Q116.53 18.58 116.53 19.46L116.53 19.46Q116.53 20.21 116.11 20.83Q115.70 21.44 114.86 21.80Q114.01 22.17 112.81 22.17L112.81 22.17Q111.79 22.17 110.83 21.92Q109.87 21.67 109.27 21.24ZM123.49 22L121.11 22L121.11 13.60L123.49 13.60L123.49 22ZM130.99 22L128.66 22L128.66 13.60L130.62 13.60L134.33 18.07L134.33 13.60L136.66 13.60L136.66 22L134.70 22L130.99 17.52L130.99 22ZM141.39 17.80L141.39 17.80Q141.39 16.54 141.99 15.54Q142.58 14.55 143.65 13.99Q144.72 13.43 146.07 13.43L146.07 13.43Q147.24 13.43 148.18 13.83Q149.12 14.22 149.74 14.97L149.74 14.97L148.23 16.33Q147.38 15.40 146.21 15.40L146.21 15.40Q146.19 15.40 146.19 15.40L146.19 15.40Q145.11 15.40 144.45 16.06Q143.79 16.71 143.79 17.80L143.79 17.80Q143.79 18.50 144.09 19.04Q144.39 19.59 144.93 19.89Q145.47 20.20 146.16 20.20L146.16 20.20Q146.85 20.20 147.45 19.93L147.45 19.93L147.45 17.62L149.55 17.62L149.55 21.10Q148.82 21.61 147.89 21.89Q146.96 22.17 146.02 22.17L146.02 22.17Q144.70 22.17 143.64 21.61Q142.58 21.05 141.99 20.05Q141.39 19.06 141.39 17.80Z" fill="#FFFFFF" x="72.18"/></svg>